# xmcd CD database file
#
# Track frame offsets:
#	150
#	16255
#	31415
#	44314
#	65842
#
# Disc length: 936 seconds
#
# Revision: 0
# Processed by: cddbd v1.5.2PL0 Copyright (c) Steve Scherf et al.
# Submitted via: CDex 1.70beta2
#
DISCID=3c03a605
DTITLE=Trespass - Just Passing Through
DYEAR=2002
DGENRE=Country
TTITLE0=Southbound Train
TTITLE1=Wish You Were Here
TTITLE2=Heartaches And Honky Tonks
TTITLE3=TP's Amazing Art [Instrumental]
TTITLE4=Fanatics [Bonus Track]
EXTD=YEAR: 2002
EXTT0=
EXTT1=
EXTT2=
EXTT3=
EXTT4=
PLAYORDER=
